<?xml version="1.0" encoding="utf-8"?>
<!-- Generator: Adobe Illustrator 22.0.0, SVG Export Plug-In . SVG Version: 6.00 Build 0)  -->
<svg version="1.1" id="Layer_1" xmlns="http://www.w3.org/2000/svg" xmlns:xlink="http://www.w3.org/1999/xlink" x="0px" y="0px"
	 viewBox="0 0 512 512" style="enable-background:new 0 0 512 512;" xml:space="preserve">
<style type="text/css">
	.st0{fill:#FFDE4D;}
	.st1{fill:#838F9B;}
	.st2{fill:#AAB2BD;}
	.st3{fill:#CCD1D9;}
	.st4{fill:#FC6E51;}
	.st5{fill:#B4DD7F;}
	.st6{fill:#A0D468;}
	.st7{fill:#69D6F4;}
	.st8{fill:#CF9E76;}
	.st9{fill:#FCD770;}
	.st10{fill:#FF826E;}
</style>
<path class="st0" d="M512,256c0,141.4-114.6,256-256,256S0,397.4,0,256S114.6,0,256,0S512,114.6,512,256z"/>
<path class="st1" d="M174.4,432c0.5,2.6,0.6,5.3,0.6,8c0,31-25,56-56,56s-56-25-56-56c0-2.7,0.2-5.4,0.6-8c3.8-27.2,27.1-48,55.4-48
	S170.5,404.8,174.4,432z"/>
<path class="st1" d="M462.4,432c0.5,2.6,0.6,5.3,0.6,8c0,31-25,56-56,56s-56-25-56-56c0-2.7,0.2-5.4,0.6-8c3.8-27.2,27.1-48,55.4-48
	S458.5,404.8,462.4,432z"/>
<path class="st2" d="M351,432l-24,32H199l-24-32H351z"/>
<g>
	<path class="st3" d="M415,384h64c8.8,0,16,7.2,16,16v16c0,8.8-7.2,16-16,16h-16.6c-3.8-27.2-27.1-48-55.4-48H415z"/>
	<path class="st3" d="M287,384h120c-28.2,0-51.5,20.8-55.4,48H351H175h-0.6c-3.8-27.2-27.1-48-55.4-48h88h48H287z"/>
	<path class="st3" d="M119,384c-28.2,0-51.5,20.8-55.4,48H31c-8.8,0-16-7.2-16-16v-16c0-8.8,7.2-16,16-16h32H119z"/>
	<circle class="st3" cx="119" cy="440" r="16"/>
	<circle class="st3" cx="407" cy="440" r="16"/>
</g>
<path class="st4" d="M479,317.7V352h-16c-8.8,0-16-7.2-16-16v-16c0-8.8,7.2-16,16-16h14C478.3,308.4,479,313,479,317.7z"/>
<path class="st5" d="M479,352v32h-64v-96v-16v-48c0-8.8-7.2-16-16-16h-96c-8.8,0-16,7.2-16,16v64v32v64h-32V224
	c0-26.5,21.5-48,48-48h91.8c25,0,45.8,19.1,47.8,44l4.3,52l5.4,2.7c12.1,6.1,20.8,16.7,24.6,29.3h-14c-8.8,0-16,7.2-16,16v16
	c0,8.8,7.2,16,16,16H479z"/>
<path class="st6" d="M287,320v-32h96h32v96h-8H287V320z"/>
<path class="st7" d="M415,224v48c0-8.8-7.2-16-16-16h-16c-4.4,0-8.4,1.8-11.3,4.7c-3,2.9-4.7,6.9-4.7,11.3c0,8.8,7.2,16,16,16h-96
	v-64c0-8.8,7.2-16,16-16h96C407.8,208,415,215.2,415,224z"/>
<path class="st3" d="M415,272v16h-32c-8.8,0-16-7.2-16-16c0-4.4,1.8-8.4,4.7-11.3c2.9-3,6.9-4.7,11.3-4.7h16
	C407.8,256,415,263.2,415,272z"/>
<path class="st8" d="M47,368v-96c0-8.8,7.2-16,16-16h48v48h48v-48h48c8.8,0,16,7.2,16,16v96c0,8.8-7.2,16-16,16h-88H63
	C54.2,384,47,376.8,47,368z"/>
<path class="st9" d="M159,256v48h-48v-48h24H159z"/>
<path class="st10" d="M205,50c11.3,14.7,18,33.1,18,53c0,16.3-4.6,32.3-13.2,46.2l-62.6,100c-2.6,4.2-7.3,6.8-12.2,6.8
	s-9.6-2.6-12.2-6.8l-62.6-100C51.6,135.4,47,119.4,47,103c0-48.1,39-87,87-87h1.9c24,0,45.8,9.8,61.5,25.5
	C200.1,44.2,202.7,47,205,50L205,50z"/>
<path class="st9" d="M181.8,73.2c5.8,8.8,9.2,19.4,9.2,30.8c0,31-25,56-56,56s-56-25-56-56s25-56,56-56
	C154.5,48,171.7,58,181.8,73.2z"/>
<path d="M407,416c-13.2,0-24,10.8-24,24s10.8,24,24,24s24-10.8,24-24S420.2,416,407,416z M407,448c-4.4,0-8-3.6-8-8s3.6-8,8-8
	s8,3.6,8,8S411.4,448,407,448z"/>
<path d="M119,416c-13.2,0-24,10.8-24,24s10.8,24,24,24s24-10.8,24-24S132.2,416,119,416z M119,448c-4.4,0-8-3.6-8-8s3.6-8,8-8
	s8,3.6,8,8S123.4,448,119,448z"/>
<path d="M487,377.5v-59.8c0-21.3-11.9-40.5-31-50.1l-1.4-0.7l-4-47.5c-2.4-28.8-26.9-51.4-55.8-51.4H303c-30.9,0-56,25.1-56,56v152
	h-17.5c0.9-2.5,1.5-5.2,1.5-8v-96c0-13.2-10.8-24-24-24h-49.6l59.1-94.6C226,138.3,231,120.9,231,103c0-19.2-5.8-37.1-15.6-52.1
	l21.3-21.3l-11.3-11.3l-20,20C188,19.7,163.4,8,136,8H134c-52.4,0-95,42.6-95,95c0,17.8,5,35.2,14.4,50.4l59.1,94.6H63
	c-13.2,0-24,10.8-24,24v96c0,2.8,0.6,5.5,1.5,8H31c-13.2,0-24,10.8-24,24v16c0,13.2,10.8,24,24,24h24c0,35.3,28.7,64,64,64
	c30.5,0,56.1-21.5,62.4-50.1L195,472h136l13.6-18.1c6.4,28.6,31.9,50.1,62.4,50.1c35.3,0,64-28.7,64-64h8c13.2,0,24-10.8,24-24v-16
	C503,389.6,496.3,380.8,487,377.5L487,377.5z M55,103c0-43.6,35.5-79,79-79h1.9c23,0,43.6,9.9,58.1,25.6l-11.6,11.6
	C170.7,48.2,153.8,40,135,40c-35.3,0-64,28.7-64,64s28.7,64,64,64s64-28.7,64-64c0-10.6-2.6-20.6-7.2-29.4l12-12
	C210.8,74.4,215,88.2,215,103c0,14.8-4.2,29.3-12,41.9l-62.5,100c-2.4,3.8-8.5,3.8-10.9,0L67,144.9C59.2,132.4,55,117.9,55,103
	L55,103z M135,131.3l44.7-44.7c2.1,5.4,3.3,11.2,3.3,17.4c0,26.5-21.5,48-48,48s-48-21.5-48-48s21.5-48,48-48
	c14.4,0,27.4,6.4,36.2,16.5L135,108.7l-18.3-18.3l-11.3,11.3L135,131.3z M471,317.7V344h-8c-4.4,0-8-3.6-8-8v-16c0-4.4,3.6-8,8-8
	h7.6C470.9,313.9,471,315.8,471,317.7z M263,224c0-22.1,17.9-40,40-40h91.8c20.6,0,38.1,16.1,39.9,36.7l4.7,56.5l9.5,4.7
	c6.6,3.3,11.9,8.2,15.7,14.1H463c-13.2,0-24,10.8-24,24v16c0,13.2,10.8,24,24,24h8v16h-48v-80v-24v-48c0-13.2-10.8-24-24-24h-96
	c-13.2,0-24,10.8-24,24v152h-16V224z M345.1,424H180.9c-3.3-12.6-10.2-23.7-19.7-32H207h157.8C355.3,400.3,348.4,411.4,345.1,424z
	 M375,272c0-4.4,3.6-8,8-8h16c4.4,0,8,3.6,8,8v8h-24C378.6,280,375,276.4,375,272z M407,249.5c-2.5-0.9-5.2-1.5-8-1.5h-16
	c-13.2,0-24,10.8-24,24c0,2.8,0.6,5.5,1.5,8H295v-56c0-4.4,3.6-8,8-8h96c4.4,0,8,3.6,8,8V249.5z M295,376v-48h32v-16h-32v-16h88h24
	v80H295z M119,264h32v32h-32V264z M55,368v-96c0-4.4,3.6-8,8-8h40v48h64v-48h40c4.4,0,8,3.6,8,8v96c0,4.4-3.6,8-8,8H63
	C58.6,376,55,372.4,55,368z M31,424c-4.4,0-8-3.6-8-8v-16c0-4.4,3.6-8,8-8h32h13.8c-9.5,8.3-16.4,19.4-19.7,32H31z M119,488
	c-26.5,0-48-21.5-48-48s21.5-48,48-48s48,21.5,48,48S145.5,488,119,488z M323,456H203l-12-16h144L323,456z M407,488
	c-26.5,0-48-21.5-48-48s21.5-48,48-48s48,21.5,48,48S433.5,488,407,488z M487,416c0,4.4-3.6,8-8,8h-10.1
	c-3.3-12.6-10.2-23.7-19.7-32H479c4.4,0,8,3.6,8,8V416z"/>
<path d="M71,344h16v16H71V344z"/>
<path d="M103,344h16v16h-16V344z"/>
<path d="M135,344h16v16h-16V344z"/>
<path d="M111,184h16v16h-16V184z"/>
<path d="M143,184h16v16h-16V184z"/>
</svg>
